<svg width="35" height="35" viewBox="0 0 45 45" fill="none"
                        xmlns="http://www.w3.org/2000/svg">
                        <path
                            d="M37.0312 28.9378V6.09375C37.0312 5.59647 36.8337 5.11956 36.4821 4.76792C36.1304 4.41629 35.6535 4.21875 35.1562 4.21875H9.84375C9.34647 4.21875 8.86956 4.41629 8.51793 4.76792C8.16629 5.11956 7.96875 5.59647 7.96875 6.09375V38.9062C7.96875 39.4035 8.16629 39.8804 8.51793 40.2321C8.86956 40.5837 9.34647 40.7812 9.84375 40.7812H35.1562C35.6535 40.7812 36.1304 40.5837 36.4821 40.2321C36.8337 39.8804 37.0312 39.4035 37.0312 38.9062V37.5291"
                            stroke="black" stroke-width="0.9375" stroke-linecap="round" stroke-linejoin="round" />
                        <path
                            d="M34.8131 35.3062L19.9575 20.4141V16.1719M34.8131 35.3062L39.0984 31.0106M34.8131 35.3062L37.2609 37.7588C37.4015 37.8995 37.5684 38.0111 37.7521 38.0873C37.9358 38.1634 38.1327 38.2026 38.3316 38.2026C38.5304 38.2026 38.7273 38.1634 38.9111 38.0873C39.0948 38.0111 39.2617 37.8995 39.4022 37.7588L41.5453 35.6109C41.8294 35.3258 41.989 34.9396 41.989 34.537C41.989 34.1345 41.8294 33.7483 41.5453 33.4631L39.0984 31.0106M19.9575 16.1719H24.3L39.0984 31.0106M19.9575 16.1719H12.1875M12.1875 9.84375H32.8125M30.6113 22.5H32.8125M12.1875 22.5H22.0387M12.1875 28.8281H28.1147M12.1875 35.1562H32.8125"
                            stroke="black" stroke-width="0.9375" stroke-linecap="round" stroke-linejoin="round" />
                    </svg>
