<svg width="28" height="23" viewBox="0 0 38 33" fill="none"
                        xmlns="http://www.w3.org/2000/svg">
                        <path
                            d="M31.2075 0C32.8651 0 34.4548 0.65848 35.6269 1.83058C36.799 3.00269 37.4575 4.5924 37.4575 6.25V31.25C37.4575 31.4543 37.4073 31.6555 37.3115 31.836C37.2157 32.0164 37.0771 32.1706 36.9078 32.2851C36.7386 32.3996 36.5439 32.4708 36.3407 32.4926C36.1376 32.5144 35.9322 32.486 35.7425 32.41L29.9675 30.095L24.1925 32.41C23.9704 32.499 23.7275 32.5225 23.4925 32.4775L23.2625 32.41L17.4875 30.095L11.7125 32.41C11.5399 32.479 11.354 32.5086 11.1685 32.4966C10.9829 32.4847 10.8024 32.4315 10.64 32.341C10.4777 32.2505 10.3375 32.1249 10.2298 31.9733C10.1221 31.8218 10.0496 31.6481 10.0175 31.465L10 31.25V13.4L7.5375 12.58L1.7125 14.91C1.53986 14.979 1.354 15.0086 1.16848 14.9966C0.982949 14.9847 0.80242 14.9315 0.64004 14.841C0.47766 14.7505 0.337519 14.6249 0.229824 14.4733C0.122129 14.3218 0.0495934 14.1481 0.0175 13.965L0 13.75V6.25C0 4.5924 0.65848 3.00269 1.83058 1.83058C3.00269 0.65848 4.5924 0 6.25 0H31.25H31.2075ZM31.2075 2.5H11.2075L11.255 2.56C12.0125 3.5925 12.46 4.8675 12.46 6.26V29.41L16.985 27.5975C17.2071 27.5085 17.45 27.485 17.685 27.53L17.9125 27.5975L23.6875 29.91L29.4875 27.5975C29.7096 27.5085 29.9525 27.485 30.1875 27.53L30.4175 27.5975L34.9425 29.41V6.26C34.9425 4.31 33.455 2.71 31.5425 2.535L31.1825 2.5175L31.2075 2.5ZM23.7075 17.5C24.039 17.5 24.357 17.6317 24.5914 17.8661C24.8258 18.1005 24.9575 18.4185 24.9575 18.75C24.9575 19.0815 24.8258 19.3995 24.5914 19.6339C24.357 19.8683 24.039 20 23.7075 20H16.2075C15.876 20 15.558 19.8683 15.3236 19.6339C15.0892 19.3995 14.9575 19.0815 14.9575 18.75C14.9575 18.4185 15.0892 18.1005 15.3236 17.8661C15.558 17.6317 15.876 17.5 16.2075 17.5H23.7075ZM31.2075 12.5C31.539 12.5 31.857 12.6317 32.0914 12.8661C32.3258 13.1005 32.4575 13.4185 32.4575 13.75C32.4575 14.0815 32.3258 14.3995 32.0914 14.6339C31.857 14.8683 31.539 15 31.2075 15H16.2075C15.876 15 15.558 14.8683 15.3236 14.6339C15.0892 14.3995 14.9575 14.0815 14.9575 13.75C14.9575 13.4185 15.0892 13.1005 15.3236 12.8661C15.558 12.6317 15.876 12.5 16.2075 12.5H31.2075ZM6.2075 2.5L5.8475 2.5175C4.91973 2.60617 4.05802 3.03646 3.42971 3.72483C2.8014 4.4132 2.45133 5.31051 2.4475 6.2425V11.8925L6.9725 10.08C7.17714 9.99862 7.39965 9.97274 7.6175 10.005L7.8325 10.055L9.9375 10.755V6.23C9.9375 4.28 8.45 2.68 6.5375 2.505L6.1775 2.4875L6.2075 2.5ZM31.2075 7.5C31.539 7.5 31.857 7.6317 32.0914 7.86612C32.3258 8.10054 32.4575 8.41848 32.4575 8.75C32.4575 9.08152 32.3258 9.39946 32.0914 9.63388C31.857 9.8683 31.539 10 31.2075 10H16.2075C15.876 10 15.558 9.8683 15.3236 9.63388C15.0892 9.39946 14.9575 9.08152 14.9575 8.75C14.9575 8.41848 15.0892 8.10054 15.3236 7.86612C15.558 7.6317 15.876 7.5 16.2075 7.5H31.2075Z"
                            fill="black" />
                    </svg>
