<svg width="48" height="48" viewBox="0 0 48 48" fill="none" xmlns="http://www.w3.org/2000/svg">
<path d="M40.8 13.3333C44.784 13.3333 48 16.9067 48 21.3333V37.3333H38.4V48H9.6V37.3333H0V21.3333C0 16.9067 3.216 13.3333 7.2 13.3333H9.6V0H38.4V13.3333H40.8ZM14.4 5.33333V13.3333H33.6V5.33333H14.4ZM33.6 42.6667V32H14.4V42.6667H33.6ZM38.4 32H43.2V21.3333C43.2 19.8667 42.12 18.6667 40.8 18.6667H7.2C5.88 18.6667 4.8 19.8667 4.8 21.3333V32H9.6V26.6667H38.4V32ZM40.8 22.6667C40.8 24.1333 39.72 25.3333 38.4 25.3333C37.08 25.3333 36 24.1333 36 22.6667C36 21.2 37.08 20 38.4 20C39.72 20 40.8 21.2 40.8 22.6667Z" fill="black"/>
</svg>
