<svg width="35" height="35" viewBox="0 0 45 45" fill="none"
                        xmlns="http://www.w3.org/2000/svg">
                        <path
                            d="M5.625 9.375V35.625C5.625 36.6196 6.02009 37.5734 6.72335 38.2766C7.42661 38.9799 8.38044 39.375 9.375 39.375H35.625C36.6196 39.375 37.5734 38.9799 38.2766 38.2766C38.9799 37.5734 39.375 36.6196 39.375 35.625V9.375C39.375 8.38044 38.9799 7.42661 38.2766 6.72335C37.5734 6.02009 36.6196 5.625 35.625 5.625H9.375C8.38044 5.625 7.42661 6.02009 6.72335 6.72335C6.02009 7.42661 5.625 8.38044 5.625 9.375ZM18.75 13.125H33.75V16.875H18.75V13.125ZM18.75 20.625H33.75V24.375H18.75V20.625ZM18.75 28.125H33.75V31.875H18.75V28.125ZM11.25 13.125H15V16.875H11.25V13.125ZM11.25 20.625H15V24.375H11.25V20.625ZM11.25 28.125H15V31.875H11.25V28.125Z"
                            fill="black" />
                    </svg>
